PathFileType	4	(X/Y/Z)	/tmp/tmpjnq7zxqp/Me/MarkerData/slow walking_segment_0.trc
DataRate	CameraRate	NumFrames	NumMarkers	Units	OrigDataRate	OrigDataStartFrame	OrigNumFrames
100.092	100.092	8	38	m	100.092	271	1086
Frame#	Time	C7			CLAV			LANK			LASI			LBHD			LELB			LFHD			LFIN			LFRM			LHEE			LKNE			LPSI			LSHO			LTHI			LTIB			LTOE			LUPA			LWRA			LWRB			RANK			RBAK			RBHD			RELB			RFHD			RFIN			RFRM			RHEE			RKNE			RPSI			RSHO			RTHI			RTIB			RTOE			RUPA			RWRA			RWRB			STRN			T10		
		X1	Y1	Z1	X2	Y2	Z2	X3	Y3	Z3	X4	Y4	Z4	X5	Y5	Z5	X6	Y6	Z6	X7	Y7	Z7	X8	Y8	Z8	X9	Y9	Z9	X10	Y10	Z10	X11	Y11	Z11	X12	Y12	Z12	X13	Y13	Z13	X14	Y14	Z14	X15	Y15	Z15	X16	Y16	Z16	X17	Y17	Z17	X18	Y18	Z18	X19	Y19	Z19	X20	Y20	Z20	X21	Y21	Z21	X22	Y22	Z22	X23	Y23	Z23	X24	Y24	Z24	X25	Y25	Z25	X26	Y26	Z26	X27	Y27	Z27	X28	Y28	Z28	X29	Y29	Z29	X30	Y30	Z30	X31	Y31	Z31	X32	Y32	Z32	X33	Y33	Z33	X34	Y34	Z34	X35	Y35	Z35	X36	Y36	Z36	X37	Y37	Z37	X38	Y38	Z38

272	2.7075	0.0223427	1.46339	-0.0670703	-0.143815	1.39208	-0.0373172	-0.0310158	0.163573	0.0949958	-0.0698588	0.999013	0.113798	-0.0521505	1.60952	0.0269102	0.0282351	1.10457	0.211497	-0.166174	1.67546	0.0171894	-0.0103616	0.773504	0.216716	0.0498112	0.948226	0.199606	0.0351703	0.159615	0.0230829	-0.242784	0.508657	0.136305	0.0604026	1.00157	-0.0182041	-0.0259047	1.45016	0.117778	-0.188182	0.693769	0.151611	-0.0937484	0.301849	0.125638	-0.179957	0.0727538	0.0707343	-0.00845657	1.28789	0.210244	-0.0230839	0.8624	0.164371	0.0390941	0.85887	0.204053	0.00946542	0.0967818	-0.142283	0.0465018	1.32934	-0.193435	-0.0584888	1.60261	-0.121619	-0.173564	1.11857	-0.319432	-0.16912	1.65952	-0.111799	-0.373038	0.836559	-0.279654	-0.211171	1.03682	-0.319059	0.0856338	0.0607677	-0.082084	-0.073824	0.491905	-0.16755	0.0553045	0.999195	-0.0809711	-0.0851749	1.44877	-0.222502	-0.123036	0.818071	-0.218955	-0.0213089	0.371988	-0.190416	-0.153154	0.0607684	-0.0877799	-0.156156	1.21558	-0.30307	-0.311401	0.920736	-0.23396	-0.293646	0.891207	-0.29872	-0.185262	1.23587	-0.0249311	0.0625773	1.23411	-0.0691123
273	2.7175	0.0227711	1.46301	-0.067774	-0.143063	1.39143	-0.0369368	-0.0485971	0.155117	0.0949936	-0.0679755	0.998646	0.113847	-0.0513795	1.60885	0.0271762	0.0327138	1.10408	0.210685	-0.165486	1.67475	0.0179446	-0.00425752	0.772813	0.215812	0.0549264	0.947795	0.198663	0.0166048	0.147328	0.0225581	-0.244047	0.509581	0.1357	0.0616395	1.00123	-0.0189058	-0.0240241	1.44918	0.117391	-0.187736	0.694276	0.151585	-0.104452	0.296468	0.125437	-0.202179	0.0720472	0.0720622	-0.00516903	1.2871	0.209532	-0.0176179	0.861614	0.163606	0.0447945	0.85839	0.203206	0.0174	0.0968491	-0.142231	0.046187	1.32911	-0.194475	-0.0581488	1.60224	-0.121416	-0.176641	1.11896	-0.319198	-0.16886	1.65903	-0.11104	-0.378627	0.838951	-0.27815	-0.21504	1.03758	-0.318661	0.0936406	0.0608316	-0.0820646	-0.0686999	0.491511	-0.167341	0.0563088	0.998899	-0.0816655	-0.0858343	1.44848	-0.222457	-0.121457	0.817175	-0.218643	-0.0152803	0.372002	-0.190309	-0.145228	0.0606824	-0.0877935	-0.158474	1.21583	-0.302807	-0.316101	0.922672	-0.232884	-0.298774	0.892654	-0.297685	-0.184347	1.23548	-0.0246677	0.0631794	1.23379	-0.0706417
274	2.72749	0.0231777	1.4625	-0.0683742	-0.142364	1.3907	-0.0364929	-0.0664397	0.147152	0.0952016	-0.0661732	0.998232	0.113996	-0.0506395	1.60809	0.0275208	0.0369134	1.10347	0.209863	-0.164795	1.67398	0.0187796	0.00174585	0.771988	0.214898	0.0599701	0.947327	0.197814	-0.00223756	0.135662	0.0221218	-0.244836	0.510225	0.135075	0.0628524	1.00096	-0.0195377	-0.0222205	1.44813	0.117106	-0.186909	0.694434	0.151616	-0.115177	0.291283	0.125256	-0.224213	0.0718076	0.0736566	-0.00218412	1.28617	0.208818	-0.0121417	0.860737	0.16281	0.0503087	0.857837	0.202306	0.0253334	0.0969145	-0.142193	0.045892	1.32879	-0.195391	-0.0578075	1.60178	-0.121098	-0.17962	1.11931	-0.318872	-0.168572	1.6585	-0.11021	-0.383924	0.841177	-0.276605	-0.218706	1.03822	-0.318139	0.101648	0.0609289	-0.0820462	-0.0638076	0.491061	-0.167181	0.056897	0.998593	-0.0821849	-0.0864485	1.44813	-0.222323	-0.11995	0.816218	-0.218288	-0.00932879	0.371988	-0.190195	-0.137005	0.0607742	-0.0878636	-0.160727	1.21601	-0.3024	-0.320509	0.924461	-0.231728	-0.303586	0.893992	-0.296514	-0.183422	1.23493	-0.0240622	0.0638049	1.23335	-0.0719263
275	2.73748	0.0236547	1.46191	-0.0688812	-0.141682	1.38988	-0.0360105	-0.084464	0.139711	0.0956347	-0.0643848	0.997731	0.113998	-0.049929	1.60725	0.0279764	0.0408356	1.10276	0.209051	-0.164106	1.67312	0.0196854	0.00766602	0.771032	0.213996	0.0647985	0.946791	0.196919	-0.0213486	0.124699	0.0219383	-0.245189	0.510704	0.134539	0.0640858	1.0007	-0.0201084	-0.0205112	1.44703	0.1169	-0.185666	0.694218	0.151692	-0.125858	0.286268	0.125146	-0.246047	0.0722427	0.0754019	0.000565156	1.28514	0.208139	-0.00681973	0.859754	0.162071	0.0557178	0.857167	0.201444	0.0332374	0.0969635	-0.142156	0.0455791	1.32835	-0.196145	-0.0574899	1.60125	-0.120628	-0.182479	1.1196	-0.318473	-0.168241	1.65791	-0.109322	-0.388909	0.843243	-0.275006	-0.222156	1.03879	-0.317546	0.10959	0.0610087	-0.0820642	-0.0591321	0.490548	-0.167045	0.057645	0.998315	-0.0826534	-0.0870298	1.4477	-0.222115	-0.118518	0.815188	-0.217875	-0.00352293	0.371928	-0.190062	-0.128954	0.0609059	-0.0878408	-0.162911	1.21611	-0.301886	-0.324612	0.926097	-0.230482	-0.308118	0.895228	-0.295237	-0.182491	1.23413	-0.0232154	0.0644552	1.23279	-0.0729359
276	2.74747	0.0242391	1.46126	-0.0692811	-0.141008	1.38901	-0.0354553	-0.102676	0.132866	0.09621	-0.0626628	0.99715	0.114062	-0.0492235	1.60632	0.028534	0.0444571	1.10195	0.208196	-0.163439	1.6722	0.0206744	0.013451	0.769959	0.213098	0.0694264	0.946171	0.195916	-0.0408962	0.114248	0.0220494	-0.245051	0.510902	0.133902	0.0652029	1.0004	-0.0205897	-0.0188809	1.44587	0.116776	-0.184012	0.693657	0.151832	-0.136442	0.281456	0.125131	-0.267653	0.0732486	0.0769963	0.00311665	1.28403	0.20751	-0.00178202	0.858663	0.161372	0.0610606	0.856457	0.200526	0.0411446	0.0970244	-0.142125	0.0451425	1.32777	-0.196743	-0.0571523	1.60062	-0.120028	-0.185144	1.1198	-0.317958	-0.167852	1.65727	-0.108379	-0.393564	0.845121	-0.27337	-0.225368	1.03926	-0.316828	0.117519	0.0610673	-0.0820938	-0.0545206	0.489972	-0.166829	0.0585791	0.998064	-0.0830664	-0.0875703	1.44718	-0.221821	-0.117165	0.814084	-0.217425	0.00207756	0.371813	-0.189939	-0.121067	0.0610566	-0.0877543	-0.164977	1.21612	-0.301261	-0.328434	0.927538	-0.229149	-0.312336	0.896329	-0.293889	-0.181547	1.23305	-0.0221845	0.0651614	1.23211	-0.073704
277	2.75746	0.0247398	1.46051	-0.0695164	-0.140351	1.38808	-0.0348351	-0.12111	0.126597	0.0968683	-0.0609119	0.996405	0.113957	-0.0485388	1.60532	0.029202	0.0477843	1.10108	0.207318	-0.162776	1.67122	0.0217274	0.0191365	0.768788	0.212193	0.0739304	0.945491	0.194825	-0.0605698	0.104653	0.0226425	-0.244447	0.510834	0.133116	0.066007	0.999981	-0.0209467	-0.0173453	1.44463	0.116788	-0.181944	0.692763	0.152016	-0.146948	0.276892	0.125222	-0.288788	0.0747502	0.0787933	0.00546893	1.28282	0.207006	0.00301207	0.857469	0.160732	0.0662753	0.855744	0.199534	0.0490685	0.0970689	-0.142114	0.0442944	1.32695	-0.197132	-0.0568331	1.59991	-0.119321	-0.187694	1.11991	-0.317353	-0.167452	1.65659	-0.107354	-0.39786	0.846814	-0.271654	-0.228374	1.03952	-0.315872	0.125536	0.0611647	-0.082104	-0.0499776	0.489371	-0.166578	0.059179	0.997804	-0.0833484	-0.0880474	1.44658	-0.221412	-0.115879	0.812923	-0.216967	0.00751577	0.371684	-0.189822	-0.113279	0.061085	-0.0877519	-0.166897	1.21605	-0.300531	-0.331938	0.928772	-0.227736	-0.316239	0.897273	-0.29246	-0.180586	1.23175	-0.0210086	0.0658661	1.23132	-0.0742902
278	2.76745	0.0251531	1.45967	-0.0695746	-0.139747	1.38711	-0.0341434	-0.139741	0.120925	0.0977277	-0.0592938	0.99554	0.113925	-0.0478684	1.60424	0.0299611	0.0509325	1.1001	0.206635	-0.162098	1.67021	0.0228372	0.0246937	0.767531	0.211261	0.0782972	0.944744	0.193708	-0.0803266	0.0959669	0.0236731	-0.243403	0.510539	0.132251	0.0668308	0.999498	-0.0212089	-0.0159043	1.44334	0.116928	-0.179544	0.691558	0.152166	-0.157401	0.272629	0.125445	-0.309511	0.0768934	0.080689	0.00762758	1.28151	0.206696	0.00755274	0.856174	0.160107	0.0710613	0.854911	0.198504	0.0569856	0.0971536	-0.142085	0.0437337	1.32616	-0.197405	-0.0565456	1.59918	-0.118489	-0.190084	1.11991	-0.3165	-0.167017	1.65586	-0.10628	-0.40178	0.848318	-0.269875	-0.231229	1.03963	-0.314749	0.133653	0.061353	-0.0820955	-0.0455223	0.488754	-0.166328	0.0598589	0.997463	-0.0835796	-0.0884608	1.44595	-0.220891	-0.114631	0.811732	-0.216489	0.0129389	0.371547	-0.189635	-0.105348	0.0611007	-0.0877839	-0.168652	1.21587	-0.299714	-0.335126	0.929814	-0.226222	-0.319827	0.898075	-0.290944	-0.179583	1.23035	-0.0197593	0.0665139	1.23047	-0.0747652
279	2.77744	0.0254913	1.45875	-0.0694714	-0.139223	1.38609	-0.0333554	-0.158188	0.116328	0.0990845	-0.0579139	0.994672	0.114223	-0.0472333	1.60311	0.0308111	0.0537522	1.09902	0.205898	-0.161427	1.66918	0.024039	0.0300839	0.766181	0.210383	0.0822259	0.943854	0.192698	-0.100016	0.0883178	0.0250345	-0.241926	0.510007	0.131293	0.0676675	0.998964	-0.0213947	-0.0145759	1.44201	0.11717	-0.176885	0.690092	0.152298	-0.167848	0.268721	0.12591	-0.329802	0.0796375	0.0825199	0.00963345	1.28008	0.206335	0.0118489	0.854778	0.15954	0.0755734	0.853952	0.197573	0.0648964	0.097319	-0.14204	0.0434519	1.32539	-0.197556	-0.0561322	1.59842	-0.117641	-0.192387	1.11982	-0.315379	-0.166543	1.65511	-0.105128	-0.405383	0.849599	-0.268046	-0.233897	1.03982	-0.313968	0.141582	0.0614105	-0.0821986	-0.0411235	0.488125	-0.166087	0.0606463	0.997029	-0.083774	-0.0888268	1.44526	-0.220267	-0.113419	0.8105	-0.215995	0.0183593	0.37142	-0.189466	-0.0972835	0.0611412	-0.0877408	-0.170225	1.21557	-0.29886	-0.337996	0.930664	-0.22463	-0.3231	0.898696	-0.289324	-0.178593	1.22898	-0.0185139	0.0670996	1.22957	-0.0751415
